# xmcd
#
# Track frame offsets: 
#        150
#        4743
#        59719
#        96291
#        129535
#        137111
#        189848
#        241348
#        243746
#        273198
#        278051
#        313680
#
# Disc length: 4585 seconds
#
# Revision: 2
# Processed by: cddbd v1.5.2PL0 Copyright (c) Steve Scherf et al.
# Submitted via: ExactAudioCopyFreeDBPlugin 1.0
#
DISCID=ac11e70c
DTITLE=John Mayall - Smokin' Blues
DYEAR=2012
DGENRE=Blues
TTITLE0=Band Introduction (Narrative)
TTITLE1=Got You On My Mind
TTITLE2=No Smoking
TTITLE3=No Holds Barred
TTITLE4=Band Intro (Narrative)
TTITLE5=Feels Good In Frankfurt
TTITLE6=Next Time Around
TTITLE7=Freddie's Request (Narrative)
TTITLE8=Sad To Be Alone
TTITLE9=Red Presents Blue Mitchell (Narrative)
TTITLE10=Filthy McNasty
TTITLE11=Make My Bed Tonight
EXTD=Secret Records 2012\nTracks 1- 4  Recorded Live Frankfurt May 2, 
EXTD=1972 \nTracks 5–12  Recorded Live Frankfurt May 17,1973
EXTT0=
EXTT1=
EXTT2=
EXTT3=
EXTT4=
EXTT5=
EXTT6=
EXTT7=
EXTT8=
EXTT9=
EXTT10=
EXTT11=
PLAYORDER=
